# xmcd
#
# Track frame offsets:
#	150
#	12168
#	27251
#
# Disc length: 581 seconds
#
# Revision: 1
# Processed by: cddbd v1.5.2PL0 Copyright (c) Steve Scherf et al.
# Submitted via: EZCDAudioConverter 7.0.7.1
#
DISCID=17024303
DTITLE=Big and Rich - 2008 - Big and Rich's Super Galactic Fan Pak 2
DYEAR=2008
DGENRE=Country
TTITLE0=Woodstock
TTITLE1=Everybody's Rockin'
TTITLE2=Find A Heart
EXTD=
EXTT0=
EXTT1=
EXTT2=
PLAYORDER=
